<?xml version="1.0" standalone="no"?><!DOCTYPE svg PUBLIC "-//W3C//DTD SVG 1.1//EN" "http://www.w3.org/Graphics/SVG/1.1/DTD/svg11.dtd"><svg class="icon" width="64px" height="64.00px" viewBox="0 0 1024 1024" version="1.1" xmlns="http://www.w3.org/2000/svg"><path fill="#b2bdcd" d="M896 96H128a64.19 64.19 0 0 0-64 64v576a64.19 64.19 0 0 0 64 64h320v64H192v64h640v-64H576v-64h320a64.19 64.19 0 0 0 64-64V160a64.19 64.19 0 0 0-64-64z m0 576H128V160.11l0.11-0.11h767.78l0.11 0.11zM512 192c-123.71 0-224 100.29-224 224s100.29 224 224 224 224-100.29 224-224-100.29-224-224-224z m0 379.08A155.08 155.08 0 1 1 667.08 416 155.08 155.08 0 0 1 512 571.08zM510.78 417.22v-87.34a86.14 86.14 0 1 0 87.35 87.35z" /></svg>