<?xml version="1.0" standalone="no"?><!DOCTYPE svg PUBLIC "-//W3C//DTD SVG 1.1//EN" "http://www.w3.org/Graphics/SVG/1.1/DTD/svg11.dtd"><svg class="icon" width="64px" height="64.00px" viewBox="0 0 1024 1024" version="1.1" xmlns="http://www.w3.org/2000/svg"><path fill="#b2bdcd" d="M912.260591 950.181761 74.680375 950.181761c-15.418154 0-27.918863-12.514012-27.918863-27.918863 0-15.431457 12.500709-27.918863 27.918863-27.918863L912.260591 894.344035c15.418154 0 27.918863 12.487406 27.918863 27.918863C940.180478 937.668773 927.679769 950.181761 912.260591 950.181761zM317.311391 741.735311c0 53.439096-43.323715 96.762811-96.763834 96.762811l-71.707159 0c-53.439096 0-96.763834-43.323715-96.763834-96.762811l0-281.102213c0-53.439096 43.323715-96.763834 96.763834-96.763834l71.707159 0c53.439096 0 96.763834 43.323715 96.763834 96.763834L317.311391 741.735311zM261.473665 460.633099c0-22.602787-18.322297-40.925085-40.925085-40.925085l-71.707159 0c-22.602787 0-40.925085 18.322297-40.925085 40.925085l0 281.102213c0 22.602787 18.322297 40.924061 40.925085 40.924061l71.707159 0c22.602787 0 40.925085-18.321274 40.925085-40.924061L261.473665 460.633099zM638.384967 741.735311c0 53.439096-43.324738 96.762811-96.764857 96.762811l-71.706135 0c-53.439096 0-96.763834-43.323715-96.763834-96.762811L373.15014 307.076794c0-53.439096 43.323715-96.763834 96.763834-96.763834l71.706135 0c53.44012 0 96.764857 43.323715 96.764857 96.763834L638.384967 741.735311zM582.545194 307.076794c0-22.602787-18.322297-40.925085-40.925085-40.925085l-71.706135 0c-22.602787 0-40.925085 18.322297-40.925085 40.925085l0 434.658518c0 22.602787 18.322297 40.924061 40.925085 40.924061l71.706135 0c22.602787 0 40.925085-18.321274 40.925085-40.924061L582.545194 307.076794zM775.322779 266.151709c-7.715729 0-11.301394-6.244214-11.301394-13.959943l0-84.289732c0-27.387767 22.479991-27.387767 31.626301-27.387767l32.855292 0c7.701402 0 13.95892 6.244214 13.95892 13.959943s-6.256494 13.959943-13.95892 13.959943l-32.855292 0c-4.688789 0-7.414877 0.217964-8.982582 0.490164l1.281179 83.267449C787.946284 259.908518 783.024182 266.151709 775.322779 266.151709zM772.66423 296.579719c-3.640923 0-7.266497-1.540076-9.911744-4.049223-2.521426-2.644223-4.048199-6.285147-4.048199-9.910721 0-3.626597 1.526773-7.252171 4.048199-9.911744 5.303796-5.302773 14.654768-5.166673 19.821441 0 2.508123 2.65855 4.049223 6.148024 4.049223 9.911744 0 3.625574-1.541099 7.266497-4.049223 9.910721C779.916401 295.039643 776.290827 296.579719 772.66423 296.579719zM945.496553 741.735311c0 53.439096-43.323715 96.762811-96.762811 96.762811l-71.707159 0c-53.44012 0-96.763834-43.323715-96.763834-96.762811L680.26275 153.520489c0-53.439096 43.323715-96.763834 96.763834-96.763834l71.707159 0c53.439096 0 96.762811 43.323715 96.762811 96.763834L945.496553 741.735311zM889.657804 153.520489c0-22.602787-18.321274-40.925085-40.924061-40.925085l-71.707159 0c-22.602787 0-40.924061 18.322297-40.924061 40.925085l0 588.214822c0 22.602787 18.321274 40.924061 40.924061 40.924061l71.707159 0c22.602787 0 40.924061-18.321274 40.924061-40.924061L889.657804 153.520489z" /></svg>