<?xml version="1.0" standalone="no"?><!DOCTYPE svg PUBLIC "-//W3C//DTD SVG 1.1//EN" "http://www.w3.org/Graphics/SVG/1.1/DTD/svg11.dtd"><svg class="icon" width="64px" height="64.00px" viewBox="0 0 1024 1024" version="1.1" xmlns="http://www.w3.org/2000/svg"><path fill="#b2bdcd" d="M16 848a32 32 0 0 0 64 0c0-131.008 98.816-237.824 225.792-252.928l27.072 54.4-28.8 231.04h63.808l-28.8-231.04 27.008-54.08c26.304 3.264 51.776 9.216 75.072 19.776 4.928-21.376 12.096-41.728 21.12-61.12A320 320 0 0 0 16 848zM336 80a192 192 0 1 0 0 384 192 192 0 0 0 0-384z m0 320.192a128.192 128.192 0 1 1 0-256.448 128.192 128.192 0 0 1 0 256.448zM1002.624 635.072c-2.752-15.488-11.52-25.408-22.208-25.216h-2.24c-36.672 0-66.56-31.616-66.56-70.528 0-12.8 5.76-26.816 5.76-26.944a32.96 32.96 0 0 0-10.112-38.592l-0.64-0.448-64-37.632-0.64-0.32a32.576 32.576 0 0 0-36.288 7.68c-7.808 8.512-32.448 30.72-52.288 30.72-20.096 0-44.864-22.656-52.736-31.296a33.088 33.088 0 0 0-24.192-10.496 28.48 28.48 0 0 0-12.096 2.56l-0.704 0.256-66.304 38.592-0.64 0.448a32.896 32.896 0 0 0-10.176 38.528 83.2 83.2 0 0 1 5.824 27.008c0 38.848-29.888 70.528-66.56 70.528h-2.24c-10.688-0.32-19.456 9.664-22.272 25.152-0.192 1.216-5.312 30.272-5.312 53.184s5.12 51.904 5.312 53.12c2.752 15.232 11.328 25.216 21.824 25.216h2.624c36.672 0 66.56 31.616 66.56 70.528 0 12.8-5.76 26.816-5.76 26.944a33.024 33.024 0 0 0 10.048 38.592l0.64 0.448 62.784 37.248 0.64 0.256a31.744 31.744 0 0 0 36.352-8.064c7.36-8.448 33.024-32.704 53.504-32.704 20.672 0 45.952 24.128 53.888 33.344 5.888 6.784 14.912 10.88 24.256 10.88a29.44 29.44 0 0 0 12.096-2.56l0.64-0.32 65.152-38.144 0.64-0.448a32.96 32.96 0 0 0 10.176-38.592 82.56 82.56 0 0 1-5.824-26.944c0-38.848 29.888-70.592 66.56-70.592h2.24c10.688 0.256 19.456-9.6 22.208-25.152 0.256-1.28 5.376-30.272 5.376-53.12s-5.056-51.904-5.312-53.12z m-62.272 92.928c-43.52 2.368-78.144 40.704-78.144 87.424 0 15.616 5.76 30.656 6.976 33.664l-51.84 30.528h-0.064c-0.768 0-1.408-0.384-1.664-0.512a147.968 147.968 0 0 0-19.264-18.112c-16.064-12.736-31.424-19.264-45.568-19.264-14.016 0-29.248 6.4-45.248 18.88a151.36 151.36 0 0 0-19.136 17.792 3.456 3.456 0 0 1-1.664 0.448h-0.128l-49.92-29.696c1.28-3.072 6.976-18.048 6.976-33.728 0-46.72-34.624-85.056-78.08-87.424-0.64-3.712-4.032-24.32-4.032-39.808s3.392-36.096 4.032-39.808c43.456-2.368 78.08-40.704 78.08-87.424 0-15.616-5.76-30.592-6.976-33.664l52.736-30.784h0.256a3.84 3.84 0 0 1 1.92 0.512c0.896 0.96 8.32 9.088 18.944 17.216 15.808 11.968 30.784 18.048 44.48 18.048 13.632 0 28.416-5.952 44.096-17.728 10.624-7.936 17.984-15.936 18.88-16.832a4.16 4.16 0 0 1 1.984-0.512h0.192l50.944 30.08c-1.28 3.072-6.976 18.048-6.976 33.728 0 46.72 34.624 85.056 78.144 87.424 0.64 3.712 3.968 24.32 3.968 39.808s-3.264 36.032-3.904 39.744z"  /><path fill="#b2bdcd" d="M752 592.512c-53.248 0-96.384 42.752-96.384 95.488s43.136 95.488 96.384 95.488 96.384-42.752 96.384-95.488-43.136-95.488-96.384-95.488z m0 127.488a32 32 0 1 1 0.128-64.128 32 32 0 0 1-0.128 64.128z"  /></svg>